<?xml version="1.0" encoding="UTF-8" standalone="no"?>
<!DOCTYPE svg PUBLIC "-//W3C//DTD SVG 1.1//EN" "http://www.w3.org/Graphics/SVG/1.1/DTD/svg11.dtd">
<svg width="100%" height="100%" viewBox="0 0 100 100" version="1.1" xmlns="http://www.w3.org/2000/svg" xmlns:xlink="http://www.w3.org/1999/xlink" xml:space="preserve" xmlns:serif="http://www.serif.com/" style="fill-rule:evenodd;clip-rule:evenodd;stroke-linejoin:round;stroke-miterlimit:2;">
    <g transform="matrix(4.16667,0,0,4.16667,0,0)">
        <path d="M13.983,11.078L16.102,11.078C16.204,11.078 16.287,10.995 16.288,10.893L16.288,9.006C16.288,8.904 16.204,8.82 16.102,8.82L13.983,8.82C13.882,8.82 13.798,8.904 13.798,9.005L13.798,10.893C13.798,10.995 13.881,11.078 13.983,11.078M11.029,5.648L13.147,5.648C13.249,5.648 13.333,5.564 13.333,5.462L13.333,3.574C13.332,3.472 13.249,3.389 13.147,3.389L11.029,3.389C10.928,3.389 10.844,3.473 10.844,3.574L10.844,5.462C10.844,5.564 10.926,5.647 11.029,5.647M11.029,8.363L13.147,8.363C13.249,8.362 13.332,8.279 13.333,8.177L13.333,6.29C13.332,6.188 13.249,6.105 13.147,6.105L11.029,6.105C10.928,6.105 10.844,6.189 10.844,6.29L10.844,8.177C10.844,8.279 10.926,8.362 11.029,8.363M8.099,8.363L10.219,8.363C10.32,8.362 10.403,8.278 10.403,8.177L10.403,6.29C10.403,6.189 10.319,6.105 10.218,6.105L8.1,6.105C7.999,6.105 7.915,6.189 7.915,6.29L7.915,8.177C7.915,8.279 7.998,8.362 8.1,8.363M5.136,8.363L7.255,8.363C7.357,8.362 7.44,8.279 7.44,8.177L7.44,6.29C7.44,6.189 7.356,6.105 7.255,6.105L5.136,6.105C5.034,6.105 4.951,6.188 4.95,6.29L4.95,8.177C4.95,8.279 5.034,8.362 5.136,8.363M11.029,11.078L13.147,11.078C13.249,11.078 13.332,10.995 13.333,10.893L13.333,9.006C13.333,8.904 13.249,8.82 13.147,8.82L11.029,8.82C10.928,8.82 10.844,8.904 10.844,9.005L10.844,10.893C10.844,10.995 10.926,11.078 11.029,11.078M8.099,11.078L10.219,11.078C10.32,11.077 10.403,10.994 10.403,10.893L10.403,9.006C10.403,9.006 10.403,9.005 10.403,9.005C10.403,8.904 10.32,8.821 10.219,8.82L8.099,8.82C7.998,8.821 7.915,8.904 7.915,9.005L7.915,10.893C7.915,10.995 7.998,11.078 8.1,11.078M5.136,11.078L7.255,11.078C7.356,11.078 7.44,10.994 7.44,10.893L7.44,9.006C7.44,9.006 7.44,9.005 7.44,9.005C7.44,8.904 7.357,8.821 7.256,8.82L5.136,8.82C5.034,8.82 4.95,8.904 4.95,9.006L4.95,10.893C4.95,10.995 5.034,11.078 5.136,11.078M2.216,11.078L4.336,11.078C4.437,11.077 4.52,10.994 4.52,10.893L4.52,9.006C4.52,9.006 4.52,9.005 4.52,9.005C4.52,8.904 4.437,8.821 4.336,8.82L2.216,8.82C2.115,8.821 2.032,8.904 2.032,9.005L2.032,10.893C2.032,10.995 2.114,11.078 2.217,11.078M23.763,9.89C23.698,9.839 23.091,9.38 21.809,9.38C21.471,9.381 21.133,9.41 20.799,9.467C20.551,7.767 19.146,6.937 19.083,6.901L18.739,6.702L18.513,7.029C18.229,7.467 18.023,7.951 17.901,8.459C17.671,9.429 17.811,10.341 18.304,11.12C17.709,11.452 16.754,11.533 16.56,11.54L0.751,11.54C0.341,11.541 0.003,11.878 0.001,12.288C-0.018,13.673 0.217,15.049 0.693,16.35C1.238,17.778 2.048,18.83 3.103,19.474C4.283,20.197 6.203,20.611 8.378,20.611C9.361,20.614 10.341,20.525 11.308,20.345C12.651,20.098 13.943,19.629 15.131,18.956C16.111,18.389 16.991,17.668 17.741,16.82C18.993,15.402 19.739,13.823 20.294,12.42L20.515,12.42C21.887,12.42 22.73,11.871 23.195,11.411C23.504,11.118 23.745,10.761 23.902,10.365L24,10.077L23.763,9.89Z" style="fill:rgb(36,150,237);fill-rule:nonzero;"/>
    </g>
</svg>
