<?xml version="1.0" encoding="UTF-8" standalone="no"?>
<!DOCTYPE svg PUBLIC "-//W3C//DTD SVG 1.1//EN" "http://www.w3.org/Graphics/SVG/1.1/DTD/svg11.dtd">
<svg width="100%" height="100%" viewBox="0 0 100 100" version="1.1" xmlns="http://www.w3.org/2000/svg" xmlns:xlink="http://www.w3.org/1999/xlink" xml:space="preserve" xmlns:serif="http://www.serif.com/" style="fill-rule:evenodd;clip-rule:evenodd;stroke-linejoin:round;stroke-miterlimit:2;">
    <g transform="matrix(4.16667,0,0,4.16667,0,0)">
        <path d="M0,20.084C0.043,20.614 0.23,21.147 0.718,21.862C1.298,22.711 2.294,23.177 3.021,22.429C3.511,21.924 8.815,12.653 11.371,9.139C11.513,8.935 11.747,8.814 11.995,8.814C12.243,8.814 12.477,8.935 12.619,9.139C15.175,12.653 20.479,21.924 20.969,22.429C21.696,23.177 22.692,22.711 23.272,21.862C23.842,21.027 24,20.442 24,19.816C24,19.39 15.74,4.018 14.908,2.738C14.108,1.508 13.864,1.24 12.511,1.196L11.479,1.196C10.126,1.24 9.882,1.507 9.081,2.738C8.267,3.991 0.33,18.758 0,19.77L0,20.084Z" style="fill:rgb(0,0,32);fill-rule:nonzero;"/>
    </g>
</svg>
