<?xml version="1.0" encoding="UTF-8" standalone="no"?>
<!DOCTYPE svg PUBLIC "-//W3C//DTD SVG 1.1//EN" "http://www.w3.org/Graphics/SVG/1.1/DTD/svg11.dtd">
<svg width="100%" height="100%" viewBox="0 0 100 100" version="1.1" xmlns="http://www.w3.org/2000/svg" xmlns:xlink="http://www.w3.org/1999/xlink" xml:space="preserve" xmlns:serif="http://www.serif.com/" style="fill-rule:evenodd;clip-rule:evenodd;stroke-linejoin:round;stroke-miterlimit:2;">
    <g transform="matrix(4.16667,0,0,4.16667,0,0)">
        <path d="M12.002,0C10.829,0 9.864,0.965 9.864,2.139C9.864,3.312 10.829,4.277 12.002,4.277C13.175,4.277 14.141,3.312 14.141,2.139C14.141,0.965 13.175,0 12.002,0ZM20.542,4.931C19.369,4.931 18.404,5.896 18.404,7.069C18.404,8.243 19.369,9.208 20.542,9.208C21.715,9.208 22.681,8.243 22.681,7.069C22.681,5.896 21.715,4.931 20.542,4.931ZM20.542,14.793C19.369,14.793 18.404,15.758 18.404,16.932C18.404,18.105 19.369,19.07 20.542,19.07C21.715,19.07 22.681,18.105 22.681,16.932C22.681,15.758 21.715,14.793 20.542,14.793ZM12.002,19.724C10.829,19.724 9.864,20.689 9.864,21.862C9.864,23.035 10.829,24 12.002,24C13.175,24 14.14,23.035 14.14,21.862C14.14,20.689 13.175,19.724 12.002,19.724ZM3.46,14.794C2.287,14.794 1.322,15.759 1.322,16.932C1.322,18.105 2.287,19.07 3.46,19.07C4.633,19.07 5.599,18.105 5.599,16.932C5.599,15.758 4.633,14.793 3.46,14.793L3.46,14.794ZM3.46,4.931C2.287,4.931 1.322,5.896 1.322,7.07C1.322,8.243 2.287,9.208 3.46,9.208C4.633,9.208 5.599,8.243 5.599,7.07C5.599,5.896 4.633,4.931 3.46,4.931ZM12.002,1.553L2.953,6.777L2.953,17.225L12.002,22.449L21.049,17.225L21.049,6.777L12.002,1.553ZM12.002,3.154L19.662,16.424L4.34,16.424L12.002,3.154ZM10.615,3.525L3.97,15.037L3.97,7.363L10.615,3.525ZM13.389,3.525L20.035,7.363L20.035,15.037L13.389,3.525ZM5.355,17.44L18.648,17.44L12.002,21.276L5.355,17.44Z" style="fill:rgb(225,0,152);fill-rule:nonzero;"/>
    </g>
</svg>
