<?xml version="1.0" encoding="UTF-8" standalone="no"?>
<!DOCTYPE svg PUBLIC "-//W3C//DTD SVG 1.1//EN" "http://www.w3.org/Graphics/SVG/1.1/DTD/svg11.dtd">
<svg width="100%" height="100%" viewBox="0 0 100 100" version="1.1" xmlns="http://www.w3.org/2000/svg" xmlns:xlink="http://www.w3.org/1999/xlink" xml:space="preserve" xmlns:serif="http://www.serif.com/" style="fill-rule:evenodd;clip-rule:evenodd;stroke-linejoin:round;stroke-miterlimit:2;">
    <g transform="matrix(4.16667,0,0,4.16667,0,0)">
        <path d="M20.229,15.793C20.33,15.735 20.414,15.651 20.473,15.55C20.532,15.449 20.563,15.334 20.563,15.217L20.575,11.359C20.575,11.242 20.606,11.127 20.665,11.026C20.724,10.925 20.808,10.841 20.91,10.783L23,9.58C23.101,9.522 23.216,9.492 23.333,9.492C23.45,9.492 23.565,9.523 23.666,9.582C23.767,9.64 23.851,9.724 23.91,9.825C23.968,9.926 23.999,10.041 23.999,10.158L23.999,17.172C23.999,17.41 23.871,17.631 23.664,17.75L15.771,22.284C15.566,22.401 15.314,22.401 15.109,22.284L8.915,18.742C8.813,18.684 8.728,18.6 8.669,18.498C8.61,18.396 8.579,18.281 8.579,18.163L8.579,14.626C8.579,14.622 8.583,14.62 8.587,14.622C8.591,14.624 8.595,14.622 8.595,14.617L8.595,14.613C8.595,14.61 8.597,14.608 8.599,14.606L13.701,11.676C13.705,11.673 13.703,11.666 13.698,11.666C13.696,11.666 13.695,11.665 13.694,11.664C13.693,11.663 13.693,11.661 13.693,11.66L13.703,8.193C13.704,7.954 13.577,7.733 13.37,7.613C13.164,7.494 12.909,7.494 12.703,7.613L8.912,9.799C8.706,9.917 8.453,9.917 8.247,9.799L4.443,7.609C4.342,7.551 4.227,7.521 4.111,7.521C3.746,7.521 3.445,7.821 3.444,8.186L3.444,14.453C3.444,14.69 3.317,14.911 3.112,15.03C3.011,15.089 2.897,15.12 2.78,15.12C2.663,15.12 2.548,15.09 2.447,15.032L0.336,13.825C0.234,13.767 0.149,13.683 0.09,13.581C0.031,13.479 -0,13.363 0,13.245L0.019,2.292C0.02,1.927 0.321,1.627 0.686,1.627C0.802,1.627 0.916,1.657 1.017,1.715L8.247,5.868C8.453,5.986 8.706,5.986 8.912,5.868L16.14,1.715C16.241,1.657 16.356,1.627 16.473,1.627C16.59,1.627 16.705,1.658 16.806,1.717C16.907,1.776 16.991,1.86 17.05,1.961C17.108,2.062 17.138,2.177 17.138,2.294L17.138,13.25C17.138,13.367 17.108,13.482 17.049,13.584C16.99,13.685 16.906,13.77 16.804,13.828L13.019,16.008C12.917,16.067 12.833,16.151 12.774,16.253C12.715,16.355 12.685,16.47 12.685,16.587C12.685,16.704 12.716,16.82 12.775,16.921C12.834,17.023 12.92,17.107 13.022,17.165L15.11,18.354C15.211,18.411 15.324,18.441 15.44,18.441C15.557,18.441 15.671,18.41 15.772,18.352L20.229,15.792L20.229,15.793ZM20.667,5.965C20.667,6.083 20.698,6.198 20.757,6.3C20.817,6.402 20.902,6.486 21.005,6.544C21.213,6.662 21.47,6.659 21.675,6.536L23.676,5.336C23.775,5.277 23.856,5.193 23.913,5.093C23.97,4.993 24,4.879 24,4.764L24,2.32C24,2.202 23.968,2.087 23.909,1.985C23.788,1.778 23.565,1.652 23.325,1.655C23.207,1.656 23.092,1.689 22.991,1.749L20.991,2.949C20.892,3.008 20.81,3.092 20.753,3.192C20.696,3.292 20.667,3.406 20.667,3.521L20.667,5.966L20.667,5.965Z" style="fill:rgb(0,127,255);fill-rule:nonzero;"/>
    </g>
</svg>
