<?xml version="1.0" encoding="UTF-8" standalone="no"?>
<!DOCTYPE svg PUBLIC "-//W3C//DTD SVG 1.1//EN" "http://www.w3.org/Graphics/SVG/1.1/DTD/svg11.dtd">
<svg width="100%" height="100%" viewBox="0 0 100 100" version="1.1" xmlns="http://www.w3.org/2000/svg" xmlns:xlink="http://www.w3.org/1999/xlink" xml:space="preserve" xmlns:serif="http://www.serif.com/" style="fill-rule:evenodd;clip-rule:evenodd;stroke-linejoin:round;stroke-miterlimit:2;">
    <g transform="matrix(4.16667,0,0,4.16667,0,0)">
        <path d="M16.405,5.501C16.29,5.501 16.212,5.515 16.131,5.534L16.131,5.547L16.145,5.547C16.199,5.651 16.291,5.727 16.359,5.82C16.413,5.927 16.459,6.034 16.513,6.14L16.527,6.125C16.621,6.059 16.667,5.953 16.667,5.792C16.627,5.745 16.621,5.698 16.587,5.652C16.547,5.585 16.461,5.552 16.407,5.499L16.405,5.501ZM5.773,18.695L4.843,18.695C4.817,17.222 4.727,15.75 4.573,14.285L4.565,14.285L3.155,18.695L2.45,18.695L1.05,14.285L1.04,14.285C0.93,15.753 0.865,17.223 0.845,18.695L0,18.695C0.055,16.729 0.192,14.885 0.41,13.165L1.56,13.165L2.895,17.229L2.903,17.229L4.25,13.165L5.345,13.165C5.587,15.18 5.729,17.025 5.773,18.695ZM9.787,14.615C9.409,16.66 8.911,18.148 8.295,19.075C7.813,19.791 7.285,20.148 6.712,20.148C6.559,20.148 6.372,20.102 6.146,20.01L6.146,19.516C6.256,19.533 6.386,19.542 6.532,19.542C6.8,19.542 7.015,19.467 7.179,19.32C7.376,19.14 7.474,18.938 7.474,18.715C7.474,18.56 7.397,18.245 7.244,17.771L6.23,14.615L7.14,14.615L7.867,16.975C8.031,17.511 8.1,17.885 8.072,18.098C8.472,17.034 8.75,15.871 8.907,14.615L9.787,14.615ZM22.112,18.695L19.482,18.695L19.482,13.165L20.367,13.165L20.367,18.015L22.112,18.015L22.112,18.695ZM18.792,18.83L17.776,18.33C17.866,18.254 17.953,18.172 18.031,18.08C18.464,17.574 18.679,16.822 18.679,15.827C18.679,13.997 17.961,13.081 16.524,13.081C15.82,13.081 15.27,13.313 14.874,13.778C14.444,14.286 14.228,15.034 14.228,16.023C14.228,16.995 14.418,17.709 14.802,18.163C15.152,18.573 15.679,18.778 16.385,18.778C16.649,18.778 16.891,18.745 17.11,18.68L18.435,19.452L18.795,18.83L18.792,18.83ZM15.5,17.588C15.275,17.228 15.163,16.648 15.163,15.852C15.163,14.459 15.587,13.762 16.433,13.762C16.876,13.762 17.203,13.929 17.41,14.262C17.634,14.624 17.746,15.198 17.746,15.985C17.746,17.389 17.322,18.093 16.476,18.093C16.031,18.093 15.706,17.926 15.498,17.593L15.5,17.588ZM13.842,17.163C13.842,17.633 13.67,18.019 13.326,18.319C12.982,18.619 12.523,18.769 11.942,18.769C11.399,18.769 10.878,18.597 10.369,18.254L10.606,17.778C11.044,17.998 11.439,18.106 11.796,18.106C12.128,18.106 12.389,18.033 12.579,17.886C12.771,17.741 12.883,17.512 12.879,17.271C12.879,16.941 12.649,16.661 12.231,16.426C11.843,16.213 11.068,15.769 11.068,15.769C10.646,15.462 10.436,15.133 10.436,14.592C10.436,14.142 10.593,13.782 10.906,13.507C11.221,13.229 11.626,13.092 12.126,13.092C12.638,13.092 13.106,13.228 13.526,13.502L13.313,13.978C12.977,13.831 12.616,13.752 12.249,13.748C11.966,13.748 11.747,13.816 11.595,13.954C11.439,14.083 11.348,14.275 11.347,14.478C11.347,14.806 11.581,15.088 12.013,15.328C12.406,15.543 13.2,15.998 13.2,15.998C13.633,16.303 13.848,16.628 13.848,17.166L13.842,17.163ZM23.224,11.311C22.689,11.297 22.274,11.351 21.927,11.499C21.827,11.539 21.667,11.539 21.653,11.666C21.708,11.719 21.716,11.806 21.763,11.88C21.843,12.014 21.981,12.193 22.109,12.287C22.249,12.397 22.389,12.503 22.536,12.597C22.796,12.757 23.091,12.852 23.346,13.013C23.491,13.107 23.639,13.226 23.786,13.326C23.859,13.376 23.906,13.466 24,13.498L24,13.478C23.954,13.418 23.94,13.331 23.895,13.264C23.828,13.197 23.761,13.137 23.695,13.071C23.499,12.812 23.264,12.585 23,12.396C22.786,12.25 22.318,12.046 22.23,11.801L22.217,11.787C22.363,11.774 22.537,11.721 22.677,11.681C22.904,11.621 23.112,11.634 23.347,11.575C23.453,11.548 23.56,11.515 23.667,11.481L23.667,11.421C23.547,11.301 23.457,11.138 23.333,11.026C22.987,10.723 22.618,10.448 22.229,10.203C22.019,10.069 21.753,9.983 21.532,9.869C21.452,9.829 21.318,9.809 21.272,9.742C21.152,9.596 21.082,9.402 20.997,9.228C20.801,8.847 20.618,8.459 20.45,8.065C20.33,7.803 20.257,7.542 20.11,7.302C19.42,6.165 18.673,5.476 17.524,4.802C17.277,4.662 16.981,4.602 16.668,4.528C16.501,4.52 16.334,4.508 16.168,4.501C16.058,4.454 15.952,4.327 15.858,4.266C15.478,4.026 14.494,3.506 14.214,4.194C14.034,4.628 14.481,5.056 14.636,5.276C14.751,5.429 14.896,5.604 14.976,5.776C15.023,5.892 15.036,6.011 15.083,6.132C15.189,6.426 15.29,6.754 15.43,7.029C15.503,7.169 15.583,7.316 15.677,7.442C15.731,7.515 15.823,7.549 15.844,7.669C15.75,7.805 15.744,8.003 15.69,8.169C15.45,8.926 15.544,9.862 15.884,10.419C15.991,10.585 16.246,10.953 16.587,10.812C16.887,10.692 16.821,10.312 16.907,9.977C16.927,9.897 16.914,9.844 16.955,9.79L16.955,9.805C17.049,9.993 17.143,10.172 17.229,10.36C17.435,10.688 17.795,11.028 18.096,11.255C18.256,11.375 18.383,11.583 18.583,11.657L18.583,11.637L18.568,11.637C18.525,11.579 18.468,11.551 18.414,11.504C18.287,11.38 18.17,11.246 18.064,11.104C17.782,10.719 17.532,10.312 17.317,9.886C17.207,9.676 17.115,9.45 17.027,9.243C16.987,9.163 16.987,9.043 16.92,9.003C16.82,9.149 16.673,9.276 16.6,9.456C16.473,9.744 16.46,10.098 16.412,10.466C16.385,10.473 16.398,10.466 16.385,10.48C16.171,10.428 16.098,10.206 16.018,10.02C15.818,9.545 15.785,8.782 15.958,8.235C16.005,8.095 16.205,7.653 16.125,7.519C16.083,7.392 15.951,7.319 15.878,7.216C15.784,7.082 15.704,6.939 15.638,6.789C15.478,6.415 15.398,6.001 15.224,5.627C15.144,5.454 15.004,5.273 14.89,5.114C14.763,4.934 14.623,4.807 14.522,4.594C14.489,4.521 14.442,4.4 14.495,4.32C14.509,4.266 14.537,4.245 14.589,4.23C14.677,4.158 14.924,4.252 15.011,4.292C15.258,4.392 15.466,4.486 15.673,4.626C15.767,4.692 15.868,4.819 15.988,4.852L16.128,4.852C16.342,4.899 16.583,4.866 16.783,4.925C17.138,5.039 17.458,5.205 17.745,5.385C18.629,5.95 19.349,6.739 19.83,7.671C19.91,7.825 19.945,7.966 20.018,8.126C20.158,8.456 20.331,8.789 20.473,9.108C20.613,9.423 20.748,9.744 20.949,10.005C21.049,10.145 21.451,10.218 21.631,10.291C21.764,10.351 21.971,10.406 22.091,10.479C22.321,10.619 22.545,10.779 22.761,10.933C22.871,11.009 23.204,11.176 23.224,11.311Z" style="fill:rgb(68,121,161);fill-rule:nonzero;"/>
    </g>
</svg>
