<?xml version="1.0" encoding="UTF-8" standalone="no"?>
<!DOCTYPE svg PUBLIC "-//W3C//DTD SVG 1.1//EN" "http://www.w3.org/Graphics/SVG/1.1/DTD/svg11.dtd">
<svg width="100%" height="100%" viewBox="0 0 100 100" version="1.1" xmlns="http://www.w3.org/2000/svg" xmlns:xlink="http://www.w3.org/1999/xlink" xml:space="preserve" xmlns:serif="http://www.serif.com/" style="fill-rule:evenodd;clip-rule:evenodd;stroke-linejoin:round;stroke-miterlimit:2;">
    <g transform="matrix(4.16667,0,0,4.16667,0,0)">
        <path d="M14.131,0.047C13.958,0.047 13.797,0.084 13.648,0.134C13.964,0.344 14.138,0.624 14.224,0.94C14.231,0.983 14.243,1.014 14.249,1.057C14.256,1.094 14.261,1.131 14.262,1.169C14.286,1.714 14.119,1.783 14.002,2.105C13.822,2.52 13.872,2.966 14.088,3.325C14.108,3.373 14.133,3.419 14.162,3.462C13.927,1.894 15.235,1.659 15.476,1.169C15.495,0.741 15.142,0.456 14.863,0.258C14.644,0.12 14.39,0.047 14.131,0.048L14.131,0.047ZM16.102,0.4C16.078,0.543 16.096,0.506 16.09,0.58C16.084,0.63 16.084,0.692 16.078,0.741C16.065,0.791 16.053,0.841 16.034,0.89C16.022,0.94 16.004,0.99 15.984,1.039L15.917,1.181C15.897,1.206 15.886,1.231 15.867,1.256L15.83,1.311C15.8,1.353 15.769,1.395 15.737,1.435C15.7,1.473 15.669,1.516 15.625,1.547L15.625,1.553C15.588,1.584 15.551,1.621 15.507,1.653C15.377,1.752 15.229,1.826 15.092,1.919C15.049,1.949 15.005,1.975 14.968,2.012C14.926,2.042 14.886,2.075 14.85,2.111C14.807,2.148 14.776,2.185 14.739,2.229C14.708,2.266 14.671,2.309 14.646,2.353C14.615,2.395 14.586,2.438 14.559,2.483C14.534,2.533 14.516,2.576 14.491,2.625C14.472,2.675 14.454,2.718 14.441,2.768C14.425,2.819 14.41,2.871 14.398,2.923C14.392,2.948 14.392,2.979 14.386,3.003C14.379,3.028 14.379,3.053 14.373,3.078C14.373,3.128 14.367,3.183 14.367,3.233C14.367,3.27 14.367,3.307 14.373,3.344C14.373,3.394 14.379,3.444 14.392,3.499C14.398,3.549 14.41,3.599 14.422,3.649C14.442,3.698 14.454,3.747 14.472,3.797C14.485,3.827 14.503,3.859 14.516,3.884L13.09,3.332C12.849,3.264 12.613,3.202 12.371,3.146L11.981,3.053C11.609,2.979 11.231,2.923 10.853,2.886C10.84,2.886 10.834,2.88 10.822,2.88C10.183,2.816 9.54,2.808 8.9,2.855C8.522,2.88 8.144,2.929 7.766,2.991C7.485,3.039 7.206,3.097 6.929,3.165L6.65,3.239C6.558,3.276 6.47,3.319 6.384,3.357L6.179,3.45C6.167,3.456 6.155,3.456 6.149,3.462C6.086,3.493 6.031,3.518 5.975,3.549C5.894,3.585 5.816,3.624 5.739,3.667C5.696,3.685 5.653,3.71 5.615,3.729C5.597,3.74 5.579,3.75 5.56,3.759C5.504,3.791 5.448,3.822 5.398,3.853C5.347,3.881 5.298,3.912 5.25,3.946C5.206,3.976 5.163,4.001 5.126,4.032C5.12,4.039 5.113,4.039 5.107,4.045C5.07,4.07 5.027,4.101 4.989,4.132L4.977,4.144L4.884,4.218C4.872,4.225 4.859,4.237 4.847,4.243C4.816,4.268 4.785,4.299 4.754,4.323C4.748,4.336 4.735,4.343 4.729,4.348C4.692,4.386 4.655,4.417 4.618,4.454C4.611,4.454 4.611,4.46 4.605,4.466C4.566,4.5 4.529,4.535 4.494,4.572C4.487,4.578 4.487,4.584 4.481,4.584C4.448,4.616 4.417,4.649 4.388,4.684C4.376,4.696 4.358,4.708 4.345,4.72C4.312,4.759 4.276,4.797 4.239,4.832C4.233,4.844 4.221,4.851 4.215,4.862C4.165,4.912 4.122,4.962 4.072,5.012L4.054,5.03C3.954,5.136 3.849,5.241 3.737,5.334C3.626,5.434 3.508,5.526 3.39,5.607C3.153,5.776 2.897,5.918 2.628,6.028C2.498,6.084 2.361,6.134 2.225,6.177C1.965,6.233 1.698,6.338 1.469,6.357C1.419,6.357 1.364,6.369 1.314,6.375L1.159,6.412L1.01,6.468C0.96,6.487 0.911,6.512 0.862,6.536C0.818,6.567 0.769,6.592 0.725,6.623C0.681,6.655 0.639,6.69 0.601,6.729C0.558,6.759 0.514,6.803 0.477,6.84C0.44,6.883 0.403,6.92 0.372,6.964C0.341,7.014 0.304,7.057 0.279,7.107C0.246,7.152 0.217,7.2 0.192,7.249C0.167,7.305 0.142,7.355 0.124,7.41C0.105,7.46 0.087,7.516 0.068,7.571C0.056,7.621 0.043,7.671 0.038,7.721C0.038,7.726 0.031,7.733 0.031,7.739C0.019,7.795 0.019,7.869 0.012,7.906C0.006,7.95 0,7.986 0,8.03C-0.001,8.138 0.024,8.244 0.074,8.34L0.074,8.346C0.093,8.383 0.118,8.421 0.143,8.458C0.167,8.495 0.193,8.532 0.223,8.569C0.254,8.6 0.291,8.638 0.329,8.669C0.365,8.705 0.404,8.738 0.446,8.768C0.595,8.898 0.632,8.941 0.824,9.04C0.855,9.059 0.886,9.071 0.924,9.09C0.93,9.09 0.936,9.096 0.942,9.096C0.942,9.109 0.942,9.115 0.948,9.127C0.962,9.229 0.989,9.329 1.028,9.425C1.048,9.462 1.06,9.499 1.078,9.536C1.085,9.549 1.091,9.561 1.098,9.567C1.122,9.617 1.147,9.66 1.171,9.704L1.264,9.834C1.295,9.871 1.333,9.914 1.37,9.952C1.407,9.989 1.444,10.02 1.488,10.057C1.488,10.057 1.494,10.063 1.5,10.063C1.537,10.094 1.574,10.125 1.612,10.15C1.655,10.18 1.701,10.207 1.748,10.23C1.791,10.255 1.841,10.28 1.89,10.299C1.93,10.317 1.971,10.331 2.014,10.342C2.021,10.348 2.027,10.348 2.039,10.354C2.064,10.361 2.095,10.367 2.119,10.373C2.101,10.708 2.095,11.023 2.145,11.135C2.2,11.259 2.473,10.881 2.745,10.447C2.709,10.875 2.684,11.377 2.745,11.526C2.814,11.681 3.185,11.197 3.508,10.664C7.903,9.648 11.913,12.684 12.334,16.974C12.254,16.304 11.429,15.933 11.051,16.026C10.865,16.484 10.549,17.073 10.041,17.439C10.084,17.029 10.066,16.609 9.979,16.199C9.84,16.77 9.578,17.303 9.21,17.761C8.622,17.804 8.033,17.519 7.723,17.091C7.698,17.073 7.692,17.036 7.673,17.011C7.655,16.968 7.636,16.924 7.623,16.881C7.605,16.839 7.593,16.796 7.586,16.751C7.58,16.707 7.58,16.664 7.58,16.614L7.58,16.521C7.587,16.477 7.598,16.434 7.611,16.391C7.624,16.348 7.636,16.305 7.655,16.261C7.679,16.218 7.698,16.174 7.729,16.131C7.834,15.833 7.834,15.591 7.642,15.449C7.605,15.425 7.565,15.404 7.524,15.387C7.5,15.381 7.469,15.369 7.444,15.362L7.394,15.344C7.352,15.33 7.308,15.32 7.264,15.313C7.222,15.301 7.178,15.294 7.134,15.294C7.089,15.287 7.044,15.283 6.998,15.282C6.967,15.282 6.936,15.288 6.905,15.288C6.859,15.288 6.813,15.294 6.768,15.307C6.725,15.313 6.682,15.319 6.638,15.331C6.594,15.343 6.55,15.358 6.508,15.375C6.465,15.393 6.428,15.412 6.384,15.431C6.347,15.449 6.31,15.474 6.266,15.493C4.822,16.435 5.684,18.641 6.669,19.28C6.297,19.348 5.919,19.428 5.814,19.509L5.801,19.521C6.068,19.682 6.347,19.819 6.638,19.937C7.035,20.067 7.456,20.184 7.642,20.234L7.642,20.24C8.156,20.345 8.681,20.383 9.204,20.352C11.95,20.16 14.2,18.071 14.609,15.319L14.646,15.48C14.665,15.592 14.689,15.71 14.702,15.827L14.702,15.833C14.714,15.889 14.72,15.945 14.727,15.995L14.727,16.019C14.733,16.075 14.739,16.131 14.739,16.181C14.745,16.249 14.751,16.317 14.751,16.385L14.751,16.485C14.751,16.515 14.758,16.552 14.758,16.583C14.758,16.621 14.751,16.658 14.751,16.695L14.751,16.782C14.751,16.825 14.745,16.862 14.745,16.906C14.745,16.931 14.745,16.956 14.739,16.986C14.739,17.03 14.733,17.073 14.733,17.123C14.727,17.141 14.727,17.16 14.727,17.178L14.707,17.321C14.707,17.34 14.707,17.358 14.702,17.377C14.695,17.439 14.683,17.495 14.677,17.557L14.677,17.569L14.64,17.743L14.64,17.761L14.603,17.928C14.603,17.935 14.596,17.948 14.596,17.953C14.585,18.01 14.57,18.066 14.553,18.121L14.553,18.139C14.534,18.201 14.516,18.257 14.503,18.313C14.497,18.319 14.497,18.325 14.497,18.325L14.441,18.511C14.417,18.573 14.398,18.629 14.373,18.691C14.348,18.753 14.33,18.815 14.305,18.871C14.28,18.933 14.255,18.988 14.231,19.051L14.224,19.051C14.2,19.106 14.174,19.168 14.144,19.224C14.139,19.239 14.132,19.253 14.125,19.267C14.119,19.273 14.119,19.28 14.113,19.286C13.703,20.107 13.106,20.82 12.371,21.368C12.321,21.399 12.272,21.437 12.222,21.474C12.21,21.486 12.192,21.492 12.179,21.504C12.135,21.537 12.089,21.568 12.043,21.598L12.061,21.635L12.068,21.635L12.328,21.598L12.334,21.598C12.495,21.573 12.656,21.542 12.817,21.511C12.861,21.505 12.91,21.492 12.954,21.48L13.041,21.461C13.084,21.455 13.127,21.443 13.171,21.437C13.208,21.424 13.245,21.417 13.282,21.406C13.902,21.256 14.503,21.052 15.08,20.811C14.084,22.168 12.759,23.249 11.23,23.953C11.944,23.903 12.656,23.786 13.344,23.587C15.833,22.855 17.938,21.173 19.201,18.907C18.946,20.342 18.377,21.703 17.534,22.893C18.135,22.497 18.69,22.035 19.189,21.517C20.576,20.069 21.487,18.23 21.799,16.249C22.009,17.229 22.071,18.239 21.979,19.236C26.453,12.995 22.35,6.524 20.633,4.82C20.627,4.807 20.621,4.801 20.621,4.789C20.615,4.795 20.615,4.795 20.615,4.801C20.615,4.795 20.615,4.795 20.608,4.789C20.608,4.863 20.602,4.937 20.596,5.012C20.579,5.151 20.558,5.289 20.534,5.427C20.504,5.563 20.466,5.7 20.429,5.837C20.385,5.967 20.336,6.103 20.279,6.233C20.222,6.361 20.161,6.487 20.094,6.611C19.956,6.854 19.796,7.084 19.617,7.299C19.524,7.41 19.425,7.509 19.325,7.609C19.267,7.662 19.207,7.714 19.145,7.764L19.003,7.888C18.892,7.975 18.776,8.056 18.656,8.129C18.538,8.205 18.415,8.276 18.29,8.34C18.16,8.402 18.03,8.458 17.9,8.514C17.635,8.615 17.361,8.689 17.082,8.737C16.939,8.762 16.797,8.774 16.66,8.787C16.561,8.794 16.462,8.798 16.363,8.799C16.222,8.797 16.081,8.789 15.941,8.774C15.799,8.763 15.659,8.742 15.52,8.712C15.379,8.686 15.241,8.651 15.105,8.607L15.098,8.607C15.235,8.594 15.371,8.582 15.508,8.557C15.787,8.509 16.061,8.434 16.326,8.334C16.462,8.284 16.592,8.222 16.716,8.16C16.846,8.098 16.964,8.03 17.088,7.956C17.206,7.876 17.323,7.795 17.435,7.708C17.547,7.621 17.652,7.528 17.751,7.429C17.856,7.336 17.949,7.231 18.042,7.125C18.135,7.014 18.222,6.902 18.302,6.791C18.315,6.772 18.328,6.747 18.34,6.729C18.402,6.629 18.464,6.53 18.52,6.431C18.657,6.184 18.769,5.925 18.854,5.656C18.898,5.526 18.929,5.39 18.96,5.253C18.985,5.111 19.01,4.975 19.022,4.838C19.034,4.696 19.047,4.553 19.047,4.417C19.047,4.317 19.04,4.218 19.034,4.119C19.022,3.98 19.005,3.842 18.984,3.704C18.96,3.564 18.929,3.426 18.892,3.289C18.848,3.159 18.805,3.022 18.755,2.892C18.705,2.762 18.644,2.632 18.582,2.508C18.513,2.384 18.445,2.26 18.371,2.142C18.292,2.026 18.209,1.913 18.123,1.802C18.03,1.696 17.937,1.59 17.838,1.485C17.786,1.432 17.732,1.38 17.677,1.33C17.397,1.113 17.107,0.909 16.815,0.723C16.775,0.7 16.734,0.679 16.691,0.661C16.507,0.548 16.309,0.461 16.102,0.401L16.102,0.4Z" style="fill:rgb(224,35,78);fill-rule:nonzero;"/>
    </g>
</svg>
