<?xml version="1.0" encoding="UTF-8" standalone="no"?>
<!DOCTYPE svg PUBLIC "-//W3C//DTD SVG 1.1//EN" "http://www.w3.org/Graphics/SVG/1.1/DTD/svg11.dtd">
<svg width="100%" height="100%" viewBox="0 0 100 100" version="1.1" xmlns="http://www.w3.org/2000/svg" xmlns:xlink="http://www.w3.org/1999/xlink" xml:space="preserve" xmlns:serif="http://www.serif.com/" style="fill-rule:evenodd;clip-rule:evenodd;stroke-linejoin:round;stroke-miterlimit:2;">
    <g transform="matrix(4.16667,0,0,4.16667,0,0)">
        <path d="M23.559,14.723C23.546,14.681 23.527,14.641 23.503,14.604C23.364,14.341 23.026,14.262 22.496,14.372C20.842,14.713 20.202,14.503 19.97,14.352C21.312,12.304 22.415,9.83 23.011,7.523C23.283,6.472 23.809,3.999 23.133,2.791C23.09,2.709 23.04,2.63 22.982,2.556C21.693,0.909 19.801,0.025 17.51,0.001C16.015,-0.015 14.739,0.347 14.394,0.48C14.223,0.448 14.051,0.421 13.878,0.398C13.445,0.32 13.006,0.277 12.566,0.271C11.384,0.252 10.363,0.535 9.517,1.111C8.659,0.79 4.728,-0.534 2.295,1.19C0.936,2.153 0.309,3.873 0.43,6.304C0.471,7.122 0.937,9.638 1.672,12.048C2.132,13.554 2.611,14.75 3.106,15.63C3.659,16.624 4.232,17.223 4.82,17.419C5.268,17.569 5.953,17.564 6.678,16.691C7.48,15.728 8.269,14.866 8.623,14.485C9.058,14.72 9.529,14.847 10.013,14.862C10.013,14.863 10.013,14.865 10.013,14.866C9.929,14.966 9.847,15.068 9.766,15.171C9.427,15.601 9.357,15.691 8.266,15.916C7.956,15.98 7.132,16.149 7.12,16.727C7.117,16.849 7.152,16.958 7.211,17.054C7.438,17.477 8.133,17.664 8.226,17.687C9.561,18.02 10.731,17.779 11.598,17.008C11.581,19.239 11.675,21.426 11.943,22.096C12.164,22.649 12.705,24 14.412,24C14.663,24 14.939,23.971 15.242,23.906C17.024,23.524 17.798,22.736 18.097,21C18.247,20.129 18.499,18.125 18.636,16.899C18.653,16.828 18.671,16.778 18.693,16.763C18.693,16.762 18.763,16.715 19.12,16.793C19.135,16.796 19.149,16.799 19.164,16.8L19.418,16.822L19.433,16.823C20.28,16.862 21.345,16.681 21.964,16.393C22.608,16.094 23.77,15.36 23.559,14.723ZM2.371,11.877C1.628,9.441 1.193,6.991 1.159,6.305C1.05,4.133 1.576,2.622 2.721,1.812C4.558,0.513 7.561,1.271 8.829,1.682C8.826,1.685 8.822,1.688 8.819,1.691C6.795,3.735 6.843,7.227 6.848,7.441C6.848,7.523 6.855,7.64 6.865,7.8C6.899,8.387 6.964,9.481 6.791,10.719C6.63,11.869 6.985,12.995 7.764,13.808C7.845,13.892 7.929,13.971 8.016,14.045C7.669,14.416 6.915,15.238 6.113,16.203C5.546,16.885 5.154,16.754 5.025,16.711C4.633,16.581 4.212,16.124 3.787,15.389C3.307,14.55 2.823,13.357 2.371,11.877ZM8.378,16.964C8.207,16.921 8.051,16.85 7.946,16.786C8.035,16.747 8.183,16.696 8.429,16.646C9.713,16.381 9.911,16.195 10.344,15.645C10.443,15.519 10.555,15.377 10.711,15.203C10.744,15.165 10.77,15.121 10.785,15.073C10.955,14.922 11.057,14.963 11.221,15.031C11.378,15.096 11.529,15.291 11.591,15.506C11.62,15.608 11.653,15.801 11.546,15.951C10.642,17.217 9.324,17.2 8.378,16.964ZM10.472,12.976L10.42,13.117C10.287,13.473 10.163,13.805 10.086,14.12C9.419,14.118 8.769,13.832 8.276,13.317C7.648,12.662 7.363,11.751 7.493,10.817C7.676,9.509 7.609,8.37 7.572,7.758C7.567,7.673 7.563,7.598 7.56,7.538C7.856,7.276 9.226,6.542 10.203,6.766C10.649,6.868 10.921,7.172 11.034,7.694C11.618,10.398 11.111,11.525 10.703,12.43C10.619,12.617 10.54,12.793 10.472,12.976ZM17.836,17.548C17.819,17.725 17.8,17.924 17.774,18.144L17.628,18.582C17.617,18.617 17.61,18.653 17.61,18.69C17.604,19.165 17.556,19.339 17.495,19.559C17.431,19.789 17.36,20.048 17.315,20.617C17.205,22.031 16.437,22.844 14.898,23.173C13.383,23.498 13.114,22.677 12.877,21.952C12.853,21.876 12.827,21.8 12.8,21.725C12.585,21.139 12.609,20.313 12.643,19.17C12.659,18.609 12.618,17.269 12.313,16.524C12.317,16.231 12.323,15.933 12.332,15.632C12.333,15.594 12.327,15.556 12.316,15.519C12.307,15.449 12.292,15.38 12.272,15.311C12.15,14.883 11.851,14.525 11.493,14.376C11.35,14.317 11.089,14.209 10.775,14.289C10.842,14.013 10.958,13.702 11.084,13.364L11.137,13.222C11.196,13.062 11.271,12.897 11.35,12.721C11.776,11.774 12.36,10.476 11.726,7.544C11.489,6.446 10.696,5.91 9.494,6.034C8.773,6.109 8.114,6.4 7.785,6.566C7.719,6.6 7.654,6.634 7.589,6.67C7.681,5.564 8.028,3.496 9.325,2.188C9.421,2.091 9.523,1.999 9.628,1.912C9.681,1.902 9.73,1.88 9.773,1.848C10.525,1.277 11.468,0.997 12.575,1.015C12.984,1.022 13.377,1.049 13.749,1.096C15.688,1.451 16.993,2.543 17.785,3.479C18.599,4.441 19.04,5.41 19.216,5.933C17.893,5.799 16.993,6.06 16.537,6.712C15.544,8.131 17.08,10.885 17.818,12.209C17.953,12.451 18.07,12.661 18.107,12.75C18.347,13.332 18.658,13.721 18.885,14.005C18.955,14.092 19.023,14.176 19.074,14.25C18.673,14.366 17.953,14.633 18.019,15.967C18.006,16.123 17.976,16.414 17.935,16.782C17.889,16.99 17.865,17.242 17.836,17.548ZM18.726,15.927C18.686,15.095 18.996,15.008 19.323,14.916C19.368,14.904 19.413,14.891 19.458,14.876C19.5,14.913 19.545,14.948 19.592,14.979C20.163,15.355 21.175,15.4 22.599,15.113C22.398,15.29 22.08,15.513 21.646,15.714C21.236,15.905 20.55,16.047 19.899,16.078C19.179,16.112 18.813,15.997 18.726,15.927ZM19.296,6.656C19.29,7.007 19.242,7.325 19.191,7.657C19.136,8.015 19.079,8.385 19.064,8.834C19.05,9.27 19.105,9.725 19.157,10.164C19.264,11.051 19.373,11.964 18.95,12.865C18.88,12.741 18.817,12.612 18.762,12.48C18.709,12.352 18.595,12.147 18.437,11.863C17.822,10.759 16.38,8.174 17.118,7.119C17.497,6.576 18.459,6.553 19.296,6.656ZM19.524,13.669C19.496,13.634 19.468,13.598 19.439,13.562L19.404,13.518C20.13,12.318 19.988,11.131 19.861,10.079C19.809,9.647 19.76,9.24 19.773,8.857C19.786,8.45 19.839,8.102 19.891,7.765C19.955,7.35 20.02,6.921 20.002,6.415C20.016,6.362 20.021,6.299 20.014,6.225C19.968,5.739 19.414,4.287 18.285,2.972C17.677,2.264 16.795,1.475 15.596,0.932C16.121,0.826 16.829,0.729 17.62,0.746C19.672,0.792 21.295,1.56 22.444,3.029C22.469,3.061 22.491,3.094 22.511,3.129C23.234,4.485 22.235,9.404 19.524,13.669ZM10.708,7.553C10.683,7.733 10.399,7.976 10.087,7.976C10.06,7.976 10.033,7.974 10.006,7.97C9.818,7.944 9.629,7.826 9.5,7.655C9.454,7.594 9.38,7.477 9.394,7.37C9.4,7.33 9.42,7.272 9.487,7.221C9.605,7.132 9.839,7.099 10.096,7.135C10.413,7.179 10.739,7.328 10.708,7.553ZM18.638,7.142C18.649,7.221 18.589,7.343 18.485,7.452C18.417,7.524 18.273,7.648 18.077,7.675C18.052,7.679 18.027,7.68 18.002,7.68C17.709,7.68 17.461,7.446 17.442,7.309C17.418,7.132 17.706,6.998 18.003,6.957C18.3,6.915 18.614,6.966 18.638,7.142Z" style="fill:rgb(65,105,225);fill-rule:nonzero;"/>
    </g>
</svg>
