<?xml version="1.0" encoding="UTF-8" standalone="no"?>
<!DOCTYPE svg PUBLIC "-//W3C//DTD SVG 1.1//EN" "http://www.w3.org/Graphics/SVG/1.1/DTD/svg11.dtd">
<svg width="100%" height="100%" viewBox="0 0 100 100" version="1.1" xmlns="http://www.w3.org/2000/svg" xmlns:xlink="http://www.w3.org/1999/xlink" xml:space="preserve" xmlns:serif="http://www.serif.com/" style="fill-rule:evenodd;clip-rule:evenodd;stroke-linejoin:round;stroke-miterlimit:2;">
    <g transform="matrix(4.16667,0,0,4.16667,0,0)">
        <path d="M21.807,18.285L13.553,0.756C13.346,0.318 12.914,0.029 12.424,0.002C11.922,-0.027 11.472,0.215 11.218,0.628L2.266,15.127C1.989,15.579 1.994,16.136 2.282,16.583L6.658,23.361C6.919,23.766 7.37,24 7.84,24C7.973,24 8.107,23.981 8.239,23.942L20.941,20.185C21.33,20.07 21.648,19.795 21.814,19.43C21.981,19.065 21.978,18.647 21.807,18.285ZM19.959,19.037L9.181,22.224C8.852,22.322 8.537,22.037 8.606,21.705L12.456,3.266C12.528,2.921 13.005,2.867 13.155,3.186L20.284,18.324C20.418,18.609 20.265,18.946 19.959,19.037Z" style="fill:rgb(45,55,72);fill-rule:nonzero;"/>
    </g>
</svg>
