<?xml version="1.0" encoding="UTF-8" standalone="no"?>
<!DOCTYPE svg PUBLIC "-//W3C//DTD SVG 1.1//EN" "http://www.w3.org/Graphics/SVG/1.1/DTD/svg11.dtd">
<svg width="100%" height="100%" viewBox="0 0 100 100" version="1.1" xmlns="http://www.w3.org/2000/svg" xmlns:xlink="http://www.w3.org/1999/xlink" xml:space="preserve" xmlns:serif="http://www.serif.com/" style="fill-rule:evenodd;clip-rule:evenodd;stroke-linejoin:round;stroke-miterlimit:2;">
    <g transform="matrix(4.16667,0,0,4.16667,0,0)">
        <path d="M16.634,16.504C17.504,16.429 18.177,15.664 18.134,14.75C18.087,13.836 17.338,13.102 16.425,13.102L16.364,13.102C15.427,13.135 14.683,13.934 14.716,14.871C14.746,15.35 14.942,15.74 15.21,16.024C14.162,18.062 12.589,19.56 10.205,20.819C8.602,21.657 6.909,21.973 5.261,21.749C3.883,21.554 2.805,20.939 2.145,19.95C1.157,18.451 1.067,16.834 1.89,15.216C2.49,14.046 3.389,13.193 3.989,12.773C3.808,12.271 3.667,11.755 3.569,11.23C-0.868,14.408 -0.416,18.752 0.932,20.805C1.936,22.303 3.989,23.261 6.236,23.261C6.836,23.261 7.466,23.217 8.079,23.067C11.976,22.318 14.927,19.981 16.62,16.535L16.634,16.504ZM21.982,12.758C19.662,10.03 16.244,8.532 12.348,8.532L11.838,8.532C11.585,7.978 11.001,7.633 10.34,7.633L10.295,7.633C9.352,7.633 8.617,8.443 8.648,9.386C8.678,10.284 9.442,11.034 10.356,11.034L10.43,11.034C11.091,11.008 11.679,10.597 11.929,9.985L12.484,9.985C14.793,9.985 16.979,10.659 18.972,11.977C20.499,12.982 21.594,14.3 22.209,15.874C22.747,17.162 22.718,18.421 22.164,19.471C21.309,21.118 19.87,21.988 17.968,21.988C16.769,21.988 15.601,21.613 15.001,21.344C14.641,21.642 14.041,22.137 13.607,22.437C14.925,23.035 16.259,23.38 17.547,23.38C20.469,23.38 22.641,21.733 23.466,20.144C24.364,18.346 24.29,15.32 21.996,12.728L21.982,12.758ZM6.49,17.042C6.52,17.941 7.283,18.69 8.198,18.69L8.258,18.69C9.169,18.669 9.908,17.914 9.908,17.002C9.908,16.976 9.907,16.949 9.906,16.922C9.906,16.022 9.127,15.275 8.213,15.275L8.153,15.275C8.093,15.275 8.003,15.275 7.927,15.304C6.684,13.206 6.159,10.957 6.355,8.532C6.475,6.704 7.075,5.115 8.152,3.797C9.052,2.673 10.745,2.117 11.899,2.089C15.135,2.028 16.484,6.06 16.588,7.663L18.086,8.113C17.741,3.197 14.686,0.62 11.764,0.62C9.02,0.62 6.49,2.613 5.47,5.535C4.077,9.43 4.991,13.177 6.7,16.174C6.55,16.369 6.46,16.713 6.49,17.042Z" style="fill:rgb(118,74,188);fill-rule:nonzero;"/>
    </g>
</svg>
