<?xml version="1.0" encoding="UTF-8" standalone="no"?>
<!DOCTYPE svg PUBLIC "-//W3C//DTD SVG 1.1//EN" "http://www.w3.org/Graphics/SVG/1.1/DTD/svg11.dtd">
<svg width="100%" height="100%" viewBox="0 0 1480 443" version="1.1" xmlns="http://www.w3.org/2000/svg" xmlns:xlink="http://www.w3.org/1999/xlink" xml:space="preserve" xmlns:serif="http://www.serif.com/" style="fill-rule:evenodd;clip-rule:evenodd;stroke-linejoin:round;stroke-miterlimit:2;">
    <g transform="matrix(1.10015,0,0,0.766773,-898.93,-501.962)">
        <path d="M2060.86,654.643C2116.45,654.643 2161.52,719.302 2161.52,799.064L2161.52,1086.8C2161.52,1166.56 2116.45,1231.22 2060.86,1231.22L917.755,1231.22C862.164,1231.22 817.098,1166.56 817.098,1086.8L817.098,799.064C817.098,719.302 862.164,654.643 917.755,654.643L2060.86,654.643Z" style="fill:rgb(8,102,255);"/>
    </g>
    <g transform="matrix(1,0,0,1,-855.625,-634.891)">
        <g transform="matrix(1,0,0,1,-261.926,88.0447)">
            <g transform="matrix(200,0,0,200,2462.59,838.307)">
            </g>
            <text x="1584.27px" y="838.307px" style="font-family:'ArialMT', 'Arial', sans-serif;font-size:200px;fill:white;">Facebook</text>
        </g>
        <g transform="matrix(0.529633,0,0,0.529633,990.424,720.355)">
            <path d="M64,32C28.7,32 0,60.7 0,96L0,416C0,451.3 28.7,480 64,480L162.2,480L162.2,334.2L109.4,334.2L109.4,256L162.2,256L162.2,222.3C162.2,135.2 201.6,94.8 287.2,94.8C303.4,94.8 331.4,98 342.9,101.2L342.9,172C336.9,171.4 326.4,171 313.3,171C271.3,171 255.1,186.9 255.1,228.2L255.1,256L338.7,256L324.3,334.2L255,334.2L255,480L384,480C419.3,480 448,451.3 448,416L448,96C448,60.7 419.3,32 384,32L64,32Z" style="fill:white;fill-rule:nonzero;"/>
        </g>
    </g>
</svg>
