<?xml version="1.0" encoding="UTF-8" standalone="no"?>
<!DOCTYPE svg PUBLIC "-//W3C//DTD SVG 1.1//EN" "http://www.w3.org/Graphics/SVG/1.1/DTD/svg11.dtd">
<svg width="100%" height="100%" viewBox="0 0 1480 443" version="1.1" xmlns="http://www.w3.org/2000/svg" xmlns:xlink="http://www.w3.org/1999/xlink" xml:space="preserve" xmlns:serif="http://www.serif.com/" style="fill-rule:evenodd;clip-rule:evenodd;stroke-linejoin:round;stroke-miterlimit:2;">
    <g transform="matrix(1.10015,0,0,0.766773,-898.93,-501.962)">
        <path d="M2060.86,654.643C2116.45,654.643 2161.52,719.302 2161.52,799.064L2161.52,1086.8C2161.52,1166.56 2116.45,1231.22 2060.86,1231.22L917.755,1231.22C862.164,1231.22 817.098,1166.56 817.098,1086.8L817.098,799.064C817.098,719.302 862.164,654.643 917.755,654.643L2060.86,654.643Z" style="fill:rgb(10,102,194);"/>
    </g>
    <g transform="matrix(1,0,0,1,-812.546,-644.34)">
        <g transform="matrix(1,0,0,1,-215.268,93.9854)">
            <g transform="matrix(200,0,0,200,2329.29,838.307)">
            </g>
            <text x="1584.27px" y="838.307px" style="font-family:'ArialMT', 'Arial', sans-serif;font-size:200px;fill:white;">Linkedin</text>
        </g>
        <g transform="matrix(10.778,0,0,10.3421,1003.9,741.285)">
            <path d="M20.448,20.452L16.893,20.452L16.893,14.883C16.893,13.555 16.866,11.846 15.041,11.846C13.188,11.846 12.905,13.291 12.905,14.785L12.905,20.452L9.351,20.452L9.351,9L12.765,9L12.765,10.561L12.811,10.561C13.288,9.661 14.448,8.711 16.181,8.711C19.782,8.711 20.448,11.081 20.448,14.166L20.448,20.452ZM5.337,7.433C4.193,7.433 3.274,6.507 3.274,5.368C3.274,4.23 4.194,3.305 5.337,3.305C6.477,3.305 7.401,4.23 7.401,5.368C7.401,6.507 6.476,7.433 5.337,7.433ZM7.119,20.452L3.555,20.452L3.555,9L7.119,9L7.119,20.452ZM22.225,0L1.771,0C0.792,0 0,0.774 0,1.729L0,22.271C0,23.227 0.792,24 1.771,24L22.222,24C23.2,24 24,23.227 24,22.271L24,1.729C24,0.774 23.2,0 22.222,0L22.225,0Z" style="fill:white;fill-rule:nonzero;"/>
        </g>
    </g>
</svg>
