<?xml version="1.0" encoding="UTF-8" standalone="no"?>
<!DOCTYPE svg PUBLIC "-//W3C//DTD SVG 1.1//EN" "http://www.w3.org/Graphics/SVG/1.1/DTD/svg11.dtd">
<svg width="100%" height="100%" viewBox="0 0 1480 443" version="1.1" xmlns="http://www.w3.org/2000/svg" xmlns:xlink="http://www.w3.org/1999/xlink" xml:space="preserve" xmlns:serif="http://www.serif.com/" style="fill-rule:evenodd;clip-rule:evenodd;stroke-linejoin:round;stroke-miterlimit:2;">
    <g transform="matrix(1.10015,0,0,0.766773,-898.93,-501.962)">
        <path d="M2060.86,654.643C2116.45,654.643 2161.52,719.302 2161.52,799.064L2161.52,1086.8C2161.52,1166.56 2116.45,1231.22 2060.86,1231.22L917.755,1231.22C862.164,1231.22 817.098,1166.56 817.098,1086.8L817.098,799.064C817.098,719.302 862.164,654.643 917.755,654.643L2060.86,654.643Z" style="fill:white;"/>
    </g>
    <g transform="matrix(1,0,0,1,-741.339,-656.746)">
        <g transform="matrix(1,0,0,1,-188.284,109.9)">
            <g transform="matrix(200,0,0,200,2162.2,838.307)">
            </g>
            <text x="1584.27px" y="838.307px" style="font-family:'ArialMT', 'Arial', sans-serif;font-size:200px;">Follow</text>
        </g>
        <g id="x.svg" transform="matrix(11.4571,0,0,8.97352,1126.87,877.796)">
            <g transform="matrix(1,0,0,1,-12,-12)">
                <path d="M18.901,1.153L22.581,1.153L14.541,10.343L24,22.846L16.594,22.846L10.794,15.262L4.156,22.846L0.474,22.846L9.074,13.016L0,1.154L7.594,1.154L12.837,8.086L18.901,1.153ZM17.61,20.644L19.649,20.644L6.486,3.24L4.298,3.24L17.61,20.644Z" style="fill-rule:nonzero;"/>
            </g>
        </g>
    </g>
</svg>
